<svg width="44" height="62" viewBox="0 0 44 62" fill="none" xmlns="http://www.w3.org/2000/svg">
<g filter="url(#filter0_d_170_2259)">
<ellipse cx="21.7937" cy="20" rx="16.8247" ry="17" fill="white"/>
<path d="M20.0633 0.042923C15.3336 0.51968 11.2168 2.43429 7.91732 5.68836C4.41352 9.13919 2.4081 13.5057 2.04486 18.5079C1.8254 21.4744 2.41567 24.7209 3.7173 27.7782C4.88271 30.5177 9.12814 38.3653 12.2838 43.6324C15.5152 49.0281 21.1758 57.7232 21.5996 57.9427C21.8796 58.1016 22.0839 57.9503 22.5834 57.2313C22.8482 56.853 23.7866 55.4605 24.6569 54.1513C29.3185 47.1513 32.9585 41.0896 36.4472 34.5134C37.0224 33.4312 37.5142 32.508 37.5445 32.4701C37.6807 32.2809 39.4667 28.7469 39.8224 27.9674C40.2689 26.976 40.7683 25.4928 41.0559 24.3349C41.7597 21.4214 41.7672 18.1446 41.0635 15.1781C40.0797 11.0387 37.8094 7.3608 34.5704 4.64403C31.6493 2.19969 28.1682 0.648331 24.4828 0.156437C23.4158 0.0126534 20.9715 -0.0478897 20.0633 0.042923ZM24.4147 3.17591C29.1218 4.02348 33.2764 6.67215 35.7888 10.4257C37.6807 13.256 38.604 16.3209 38.604 19.7717C38.604 26.696 34.3586 32.8182 27.7672 35.3837C23.4461 37.0712 18.7087 36.8518 14.4255 34.7782C11.073 33.1512 8.63625 30.7977 6.93353 27.5512C4.89785 23.6766 4.45136 18.8863 5.73028 14.7241C6.82759 11.1673 9.22652 7.99648 12.4579 5.81701C14.4936 4.44727 17.0817 3.47105 19.6471 3.1078C20.6536 2.96402 23.4536 3.00943 24.4147 3.17591Z" fill="#EA6C36"/>
</g>
<defs>
<filter id="filter0_d_170_2259" x="0" y="0" width="43.5876" height="62" filterUnits="userSpaceOnUse" color-interpolation-filters="sRGB">
<feFlood flood-opacity="0" result="BackgroundImageFix"/>
<feColorMatrix in="SourceAlpha" type="matrix" values="0 0 0 0 0 0 0 0 0 0 0 0 0 0 0 0 0 0 127 0" result="hardAlpha"/>
<feOffset dy="2"/>
<feGaussianBlur stdDeviation="1"/>
<feComposite in2="hardAlpha" operator="out"/>
<feColorMatrix type="matrix" values="0 0 0 0 0 0 0 0 0 0 0 0 0 0 0 0 0 0 0.35 0"/>
<feBlend mode="normal" in2="BackgroundImageFix" result="effect1_dropShadow_170_2259"/>
<feBlend mode="normal" in="SourceGraphic" in2="effect1_dropShadow_170_2259" result="shape"/>
</filter>
</defs>
</svg>
