<svg width="90" height="73" viewBox="0 0 90 73" fill="none" xmlns="http://www.w3.org/2000/svg">
<ellipse cx="69.9231" cy="29.4502" rx="16.8247" ry="17" transform="rotate(32 69.9231 29.4502)" fill="white"/>
<path d="M79.0312 11.6087C74.7674 9.50666 70.2616 8.94878 65.7391 9.95993C60.9391 11.0297 56.9245 13.67 53.9657 17.7196C52.2076 20.119 50.9877 23.185 50.4715 26.4675C50.0081 29.4083 49.4498 38.3132 49.3349 44.4522C49.2159 50.7403 49.4086 61.1139 49.6517 61.5246C49.805 61.8078 50.0585 61.7877 50.863 61.4427C51.2881 61.2621 52.8218 60.5786 54.2536 59.9295C61.9164 56.4634 68.2155 53.2517 74.6589 49.5235C75.7201 48.9105 76.6265 48.3882 76.6722 48.3722C76.888 48.2839 80.2754 46.2333 80.99 45.7607C81.894 45.1566 83.1036 44.1634 83.961 43.3339C86.1018 41.236 87.8447 38.4612 88.8198 35.5725C90.1791 31.5407 90.2028 27.2186 88.8957 23.1983C87.7137 19.5774 85.5837 16.4171 82.7189 14.047C81.8902 13.3596 79.8494 12.0129 79.0312 11.6087ZM81.0611 16.5715C84.6038 19.7847 86.7235 24.2325 86.8651 28.7471C86.9697 32.1498 86.1285 35.2382 84.2999 38.1647C80.6305 44.0369 73.7859 46.9791 66.8366 45.6618C62.2778 44.8031 58.3767 42.1066 55.843 38.0783C53.8622 34.922 53.0429 31.6348 53.3193 27.9793C53.6462 23.6147 55.806 19.3157 59.0962 16.4637C61.9116 14.0289 65.6263 12.6111 69.5216 12.4752C71.9738 12.3923 74.6859 12.9359 77.054 13.9873C77.9838 14.3988 80.3343 15.9211 81.0611 16.5715Z" fill="#EA6C36"/>
<ellipse cx="27.6032" cy="29.4684" rx="16.8247" ry="17" transform="rotate(-32 27.6032 29.4684)" fill="white"/>
<path d="M15.5601 13.4606C11.8017 16.3713 9.32505 20.1765 8.25133 24.6846C7.1086 29.4678 7.72181 34.2335 10.0645 38.6681C11.4504 41.3002 13.6714 43.7406 16.3953 45.6435C18.8354 47.3492 26.5943 51.7546 32.0616 54.549C37.6612 57.4125 47.0694 61.7868 47.5451 61.7483C47.8668 61.7347 47.9599 61.4981 48.0025 60.6237C48.0266 60.1625 48.0845 58.4844 48.1287 56.9129C48.3726 48.5063 48.2473 41.4368 47.721 34.0111C47.6353 32.7886 47.5632 31.7449 47.5688 31.6968C47.5841 31.4642 47.2259 27.5207 47.1144 26.6712C46.9677 25.5939 46.6053 24.0714 46.2356 22.9371C45.2885 20.0933 43.5585 17.3104 41.3897 15.1676C38.3618 12.1785 34.4875 10.2625 30.3011 9.67496C26.5285 9.15 22.7543 9.67907 19.3682 11.2149C18.3871 11.6584 16.2821 12.9024 15.5601 13.4606ZM20.9105 13.8116C25.3515 12.0361 30.2784 12.0807 34.3981 13.9324C37.5024 15.3301 39.9095 17.44 41.7381 20.3665C45.4075 26.2387 45.0514 33.6803 40.8211 39.3488C38.0508 43.0698 33.9171 45.3941 29.1858 45.9054C25.4806 46.3022 22.1669 45.5976 19.0026 43.7467C15.223 41.5396 12.3059 37.7138 11.1848 33.5063C10.2306 29.9085 10.5847 25.9482 12.1701 22.3876C13.1706 20.1472 14.8482 17.9478 16.8313 16.2803C17.6086 15.625 20.0072 14.1798 20.9105 13.8116Z" fill="#EA6C36"/>
<g filter="url(#filter0_d_170_2238)">
<ellipse cx="48.7937" cy="24" rx="16.8247" ry="17" fill="white"/>
<path d="M47.0633 4.04292C42.3336 4.51968 38.2168 6.43429 34.9173 9.68836C31.4135 13.1392 29.4081 17.5057 29.0449 22.5079C28.8254 25.4744 29.4157 28.7209 30.7173 31.7782C31.8827 34.5177 36.1281 42.3653 39.2838 47.6324C42.5152 53.0281 48.1758 61.7232 48.5996 61.9427C48.8796 62.1016 49.0839 61.9503 49.5834 61.2313C49.8482 60.853 50.7866 59.4605 51.6569 58.1513C56.3185 51.1513 59.9585 45.0896 63.4472 38.5134C64.0224 37.4312 64.5142 36.508 64.5445 36.4701C64.6807 36.2809 66.4667 32.7469 66.8224 31.9674C67.2689 30.976 67.7683 29.4928 68.0559 28.3349C68.7597 25.4214 68.7672 22.1446 68.0635 19.1781C67.0797 15.0387 64.8094 11.3608 61.5704 8.64403C58.6493 6.19969 55.1682 4.64833 51.4828 4.15644C50.4158 4.01265 47.9715 3.95211 47.0633 4.04292ZM51.4147 7.17591C56.1218 8.02348 60.2764 10.6721 62.7888 14.4257C64.6807 17.256 65.604 20.3209 65.604 23.7717C65.604 30.696 61.3586 36.8182 54.7672 39.3837C50.4461 41.0712 45.7087 40.8518 41.4255 38.7782C38.073 37.1512 35.6362 34.7977 33.9335 31.5512C31.8978 27.6766 31.4514 22.8863 32.7303 18.7241C33.8276 15.1673 36.2265 11.9965 39.4579 9.81701C41.4936 8.44727 44.0817 7.47105 46.6471 7.1078C47.6536 6.96402 50.4536 7.00943 51.4147 7.17591Z" fill="#EA6C36"/>
</g>
<defs>
<filter id="filter0_d_170_2238" x="27" y="4" width="43.5876" height="62" filterUnits="userSpaceOnUse" color-interpolation-filters="sRGB">
<feFlood flood-opacity="0" result="BackgroundImageFix"/>
<feColorMatrix in="SourceAlpha" type="matrix" values="0 0 0 0 0 0 0 0 0 0 0 0 0 0 0 0 0 0 127 0" result="hardAlpha"/>
<feOffset dy="2"/>
<feGaussianBlur stdDeviation="1"/>
<feComposite in2="hardAlpha" operator="out"/>
<feColorMatrix type="matrix" values="0 0 0 0 0 0 0 0 0 0 0 0 0 0 0 0 0 0 0.35 0"/>
<feBlend mode="normal" in2="BackgroundImageFix" result="effect1_dropShadow_170_2238"/>
<feBlend mode="normal" in="SourceGraphic" in2="effect1_dropShadow_170_2238" result="shape"/>
</filter>
</defs>
</svg>
